# xmcd
#
# Track frame offsets:
#	150
#	9564
#	26034
#	41863
#	54622
#	75067
#	91370
#	108533
#	118857
#	136690
#	146351
#	161862
#	176331
#	188543
#
# Disc length: 2692 seconds
#
# Revision: 1
# Processed by: cddbd v1.5.2PL0 Copyright (c) Steve Scherf et al.
# Submitted via: audiograbber 1.83.01
#
DISCID=af0a820e
DTITLE=Blake Shelton - Cheers, It's Christmas.
DYEAR=2012
DGENRE=Country
TTITLE0=Jingle Bell Rock
TTITLE1=White Christmas
TTITLE2=Oklahoma Christmas
TTITLE3=Let It Snow! Let It Snow! Let It Snow!
TTITLE4=There's A New Kid In Town
TTITLE5=Santa's Got A Choo Choo Train
TTITLE6=Home
TTITLE7=Winter Wonderland
TTITLE8=The Christmas Song
TTITLE9=Blue Christmas
TTITLE10=I'll Be Home For Christmas
TTITLE11=Silver Bells
TTITLE12=Time For Me To Come Home
TTITLE13=The Very Best Time Of Year
EXTD=
EXTT0=
EXTT1=
EXTT2=
EXTT3=
EXTT4=
EXTT5=
EXTT6=
EXTT7=
EXTT8=
EXTT9=
EXTT10=
EXTT11=
EXTT12=
EXTT13=
PLAYORDER=
